{"title":"Tu Mohabbat Hai (Tere Naal Love Ho Gaya) - Official Video - H.26","uid":6965996,"size":51247054,"categoryP":"video","categoryS":"music_videos","magnet":"?xt=urn:btih:e4706c89c1ab9ef05b770cf6f3fcdb0ebe7e3be5&amp;dn=Tu+Mohabbat+Hai+%28Tere+Naal+Love+Ho+Gaya%29+-+Official+Video+-+H.26&amp;tr=udp%3A%2F%2Ftracker.openbittorrent.com%3A80&amp;tr=udp%3A%2F%2Fopen.demonii.com%3A1337&amp;tr=udp%3A%2F%2Ftracker.coppersurfer.tk%3A6969&amp;tr=udp%3A%2F%2Fexodus.desync.com%3A6969","seeders":1,"leechers":0,"uploader":"AbhiHKRG","files":6,"time":1326925079,"description":"Cover ::\n &lt;a href=&quot;\nhttp://i.minus.com/iU9sQBab04yJH.png&quot; rel=&quot;nofollow&quot; target=&quot;_NEW&quot;&gt;\nhttp://i.minus.com/iU9sQBab04yJH.png&lt;/a&gt;\n\n\nScreen ::\n &lt;a href=&quot;\nhttp://i.minus.com/ibeeRa1FthQOMn.png&quot; rel=&quot;nofollow&quot; target=&quot;_NEW&quot;&gt;\nhttp://i.minus.com/ibeeRa1FthQOMn.png&lt;/a&gt;\n &lt;a href=&quot;\nhttp://i.minus.com/iFUVvewdEZjud.png&quot; rel=&quot;nofollow&quot; target=&quot;_NEW&quot;&gt;\nhttp://i.minus.com/iFUVvewdEZjud.png&lt;/a&gt;\n &lt;a href=&quot;\nhttp://i.minus.com/iS25LAfYC767A.png&quot; rel=&quot;nofollow&quot; target=&quot;_NEW&quot;&gt;\nhttp://i.minus.com/iS25LAfYC767A.png&lt;/a&gt;\n &lt;a href=&quot;\nhttp://i.minus.com/ivdImAGiFQsVM.png&quot; rel=&quot;nofollow&quot; target=&quot;_NEW&quot;&gt;\nhttp://i.minus.com/ivdImAGiFQsVM.png&lt;/a&gt;\n &lt;a href=&quot;\nhttp://i.minus.com/id5rT4kevpyHm.png&quot; rel=&quot;nofollow&quot; target=&quot;_NEW&quot;&gt;\nhttp://i.minus.com/id5rT4kevpyHm.png&lt;/a&gt;\n &lt;a href=&quot;\nhttp://i.minus.com/i1yZuuaiRZqV3.png&quot; rel=&quot;nofollow&quot; target=&quot;_NEW&quot;&gt;\nhttp://i.minus.com/i1yZuuaiRZqV3.png&lt;/a&gt;\n &lt;a href=&quot;\nhttp://i.minus.com/id7ImWbfIixBR.jpg&quot; rel=&quot;nofollow&quot; target=&quot;_NEW&quot;&gt;\nhttp://i.minus.com/id7ImWbfIixBR.jpg&lt;/a&gt;\n\n\nGeneral Info::\nFormat                           : AVI\nFormat/Info                      : Audio Video Interleave\nFile size                        : 48.9 MiB\nDuration                         : 2mn 26s\nOverall bit rate                 : 2 798 Kbps\n\n\nVideo Info ::\nID                               : 0\nFormat                           : AVC\nFormat/Info                      : Advanced Video Codec\nFormat profile                   : &lt;a class=&quot;__cf_email__&quot; href=&quot;/cdn-cgi/l/email-protection&quot; data-cfemail=&quot;ace4c5cbc4ece099829d&quot;&gt;[email&amp;#160;protected]&lt;/a&gt;&lt;script cf-hash='f9e31' type=&quot;text/javascript&quot;&gt;\n/* &lt;![CDATA[ */!function(){try{var t=&quot;currentScript&quot;in document?document.currentScript:function(){for(var t=document.getElementsByTagName(&quot;script&quot;),e=t.length;e--;)if(t[e].getAttribute(&quot;cf-hash&quot;))return t[e]}();if(t&amp;&amp;t.previousSibling){var e,r,n,i,c=t.previousSibling,a=c.getAttribute(&quot;data-cfemail&quot;);if(a){for(e=&quot;&quot;,r=parseInt(a.substr(0,2),16),n=2;a.length-n;n+=2)i=parseInt(a.substr(n,2),16)^r,e+=String.fromCharCode(i);e=document.createTextNode(e),c.parentNode.replaceChild(e,c)}}}catch(u){}}();/* ]]&gt; */&lt;/script&gt;\nFormat settings, CABAC           : Yes\nFormat settings, ReFrames        : 2 frames\nCodec ID                         : H264\nDuration                         : 10s 0ms\nBit rate                         : 2 467 Kbps\nWidth                            : 1 280 pixels\nHeight                           : 544 pixels\nDisplay aspect ratio             : 2.35:1\nFrame rate                       : 30.000 fps\nColor space                      : YUV\nChroma subsampling               : 4:2:0\nBit depth                        : 8 bits\nScan type                        : Progressive\nBits/(Pixel*Frame)               : 0.118\nStream size                      : 43.1 MiB (88%)\n\n\nAudio Info ::\nID                               : 1\nFormat                           : MPEG Audio\nFormat version                   : Version 1\nFormat profile                   : Layer 3\nCodec ID                         : 55\nCodec ID/Hint                    : MP3\nDuration                         : 2mn 26s\nBit rate mode                    : Constant\nBit rate                         : 320 Kbps\nChannel(s)                       : 2 channels\nSampling rate                    : 48.0 KHz\nCompression mode                 : Lossy\nStream size                      : 5.59 MiB (11%)","torrent":{"xt":"urn:btih:e4706c89c1ab9ef05b770cf6f3fcdb0ebe7e3be5","amp;dn":"Tu+Mohabbat+Hai+%28Tere+Naal+Love+Ho+Gaya%29+-+Official+Video+-+H.26","amp;tr":["udp%3A%2F%2Ftracker.openbittorrent.com%3A80","udp%3A%2F%2Fopen.demonii.com%3A1337","udp%3A%2F%2Ftracker.coppersurfer.tk%3A6969","udp%3A%2F%2Fexodus.desync.com%3A6969"],"infoHash":"e4706c89c1ab9ef05b770cf6f3fcdb0ebe7e3be5","infoHashBuffer":{"type":"Buffer","data":[228,112,108,137,193,171,158,240,91,119,12,246,243,252,219,14,190,126,59,229]},"announce":[],"urlList":[]}}